# xmcd CD database file
#
# Track frame offsets:
#	150
#	23818
#	53734
#	70008
#	86917
#	105579
#	132463
#	150718
#	168281
#	187385
#	208810
#	234681
#	254631
#	272294
#	287569
#
# Disc length: 4057 seconds
#
# Revision: 0
# Processed by: cddbd v1.5.2PL0 Copyright (c) Steve Scherf et al.
# Submitted via: CDex 1.51
#
DISCID=dc0fd70f
DTITLE=Vasco Faé - Mano Blues
DYEAR=2007
DGENRE=Blues
TTITLE0=Hammock Blues
TTITLE1=In the Evening
TTITLE2=You Thought I was Fool
TTITLE3=One Dime Blues
TTITLE4=God Moves
TTITLE5=Living is Good
TTITLE6=CC Rider
TTITLE7=Hush Somebody's Calling My Name
TTITLE8=Frankie and Johnny
TTITLE9=The Small House
TTITLE10=Lord I Just Can't Keep From Crying
TTITLE11=You Look Good 
TTITLE12=Tell Me Something Baby
TTITLE13=Gaitaria Nº 5 
TTITLE14=Thank you Ry Cooder
EXTD=YEAR: 2007
EXTT0=
EXTT1=
EXTT2=
EXTT3=
EXTT4=
EXTT5=
EXTT6=
EXTT7=
EXTT8=
EXTT9=
EXTT10=
EXTT11=
EXTT12=
EXTT13=
EXTT14=
PLAYORDER=
